<svg xmlns="http://www.w3.org/2000/svg" viewBox="0 0 195 195"><defs><style>.cls-1{fill:#1edb98;fill-rule:evenodd;}</style></defs><g id="Layer_2" data-name="Layer 2"><g id="Layer_1-2" data-name="Layer 1"><path class="cls-1" d="M195,0H0V195H195V0ZM91.29,36.22c18.94-5.35,34.39,9,37.75,23.64,4.31,18.77-9.07,33.91-23.64,37.2C66.69,105.8,50,47.88,91.29,36.22Zm-.46,87.51c-1.87-1-7.63-1.83-10.35-2.72-30.16-9.87-19.41-24.48-10.77-23.6,3.09.32,5.89,2.94,8.28,4.33a41.42,41.42,0,0,0,41.5-.32c2.66-1.62,4.87-4.26,8.91-4,5.41.29,16.37,9.8-2.91,19.7-10.58,5.44-11.06,3.91-19.36,6.49,1.44,2.87,16.62,17.12,20.94,21.51,7.18,7.31,1.06,15.61-6.3,14.78-4.67-.54-19.35-16.43-22-19.69-6,3-16.54,18.67-22.34,19.62-7.65,1.26-14-7.62-6.26-15.3l20.68-20.77Zm3.82-72c9.33-2.62,16.82,3.89,18.72,11,2.45,9.16-4,16.8-10.86,18.65C83,86.64,74.57,57.33,94.65,51.72Z"/></g></g></svg>
