<?xml version="1.0" encoding="UTF-8" standalone="no"?>
<!DOCTYPE svg PUBLIC "-//W3C//DTD SVG 1.1//EN" "http://www.w3.org/Graphics/SVG/1.1/DTD/svg11.dtd">
<svg xmlns="http://www.w3.org/2000/svg" xmlns:xlink="http://www.w3.org/1999/xlink" version="1.1" width="728.6pt" height="149.228pt" viewBox="0 0 728.6 149.228">
<g enable-background="new">
<g id="Layer-1" data-name="Layer">
<path transform="matrix(1,0,0,-1,703.6128,28.916)" d="M 0 0 L -24.862 -27.86 L -24.862 0 L -42.853 0 L -42.853 -70.338 L -24.862 -70.338 L -24.862 -40.729 L 1.749 -70.338 L 24.987 -70.338 L 24.987 -70.337 L -7.746 -33.482 L 22.613 0 Z " fill="#ef3124"/>
<path transform="matrix(1,0,0,-1,629.0367,55.1521)" d="M 0 0 L -24.861 0 L -24.861 26.236 L -42.853 26.236 L -42.853 -44.102 L -24.861 -44.102 L -24.861 -16.366 L 0 -16.366 L 0 -44.102 L 17.991 -44.102 L 17.991 26.236 L 0 26.236 Z " fill="#ef3124"/>
<clipPath id="cp0">
<path transform="matrix(1,0,0,-1,0,149.228)" d="M 0 149.228 L 728.6 149.228 L 728.6 0 L 0 0 Z "/>
</clipPath>
<g clip-path="url(#cp0)">
<path transform="matrix(1,0,0,-1,106.819,67.020298)" d="M 0 0 C -.43 -13.115 -2.123 -15.742 -9.494 -15.742 L -9.494 -32.233 L -6.746 -32.233 C 11.642 -32.233 16.064 -22.737 16.742 -1.625 L 17.491 21.738 L 34.732 21.738 L 34.732 -32.233 L 52.723 -32.233 L 52.723 38.104 L 1.25 38.104 Z " fill="#ef3124"/>
<path transform="matrix(1,0,0,-1,202.8835,83.7625)" d="M 0 0 L -11.619 0 L -11.619 17.866 L 0 17.866 C 6.247 17.866 9.995 15.117 9.995 9.246 C 9.995 2.874 6.372 0 0 0 M 1.374 33.483 L -11.619 33.483 L -11.619 54.847 L -29.609 54.847 L -29.609 -15.491 L 1.625 -15.491 C 21.239 -15.491 28.235 -2.748 28.235 9.246 C 28.235 24.737 18.491 33.483 1.374 33.483 " fill="#ef3124"/>
<path transform="matrix(1,0,0,-1,289.7135,83.8875)" d="M 0 0 L 0 39.729 C 9.995 38.355 16.241 30.859 16.241 19.865 C 16.241 8.871 9.995 1.375 0 0 M -17.99 0 C -27.985 1.375 -34.232 8.871 -34.232 19.865 C -34.232 30.859 -27.985 38.355 -17.99 39.729 Z M 0 56.596 L 0 82.708 L -17.99 82.708 L -17.99 56.596 C -38.604 54.847 -52.473 40.229 -52.473 19.865 C -52.473 -.624 -38.604 -15.242 -17.99 -16.99 L -17.99 -43.478 L 0 -43.478 L 0 -16.99 C 20.614 -15.366 34.482 -.624 34.482 19.865 C 34.482 40.354 20.614 54.972 0 56.596 " fill="#ef3124"/>
<path transform="matrix(1,0,0,-1,373.6706,73.017398)" d="M 0 0 C 0 -8.121 -5.747 -12.744 -13.244 -12.744 C -19.74 -12.744 -24.862 -10.37 -24.862 -3.373 C -24.862 3.498 -19.241 4.622 -14.368 4.622 L 0 4.622 Z M 17.99 -4.623 L 17.99 18.989 C 17.99 36.23 6.996 47.101 -11.494 47.101 C -30.609 47.101 -40.729 35.606 -41.604 23.612 L -23.363 23.612 C -22.739 26.236 -19.99 30.733 -11.494 30.733 C -4.498 30.733 0 27.485 0 18.989 L -17.866 18.989 C -33.858 18.989 -43.354 10.619 -43.354 -3.373 C -43.354 -17.991 -32.967 -27.986 -17.991 -27.986 C -7.01 -27.986 -.914 -22.796 1.748 -18.865 C 4.122 -23.612 9.369 -26.236 16.24 -26.236 L 22.487 -26.236 L 22.487 -9.995 C 19.239 -9.995 17.99 -8.496 17.99 -4.623 " fill="#ef3124"/>
<path transform="matrix(1,0,0,-1,467.8708,81.5135)" d="M 0 0 L -19.239 0 L -19.239 25.487 L 0 25.487 C 9.995 25.487 15.617 20.864 15.617 12.744 C 15.617 4.373 9.995 0 0 0 M .875 42.604 L -19.239 42.604 L -19.239 62.468 L 27.361 62.468 L 27.361 80.334 L -38.105 80.334 L -38.105 -17.74 L .875 -17.74 C 22.488 -17.74 34.857 -6.996 34.857 12.744 C 34.857 31.358 22.488 42.604 .875 42.604 " fill="#ef3124"/>
<path transform="matrix(1,0,0,-1,553.5768,73.017398)" d="M 0 0 C 0 -8.121 -5.747 -12.744 -13.243 -12.744 C -19.74 -12.744 -24.862 -10.37 -24.862 -3.373 C -24.862 3.498 -19.24 4.622 -14.368 4.622 L 0 4.622 Z M 17.99 -4.623 L 17.99 18.989 C 17.99 36.23 6.996 47.101 -11.494 47.101 C -30.609 47.101 -40.729 35.606 -41.603 23.612 L -23.363 23.612 C -22.739 26.236 -19.99 30.733 -11.494 30.733 C -4.498 30.733 0 27.485 0 18.989 L -17.866 18.989 C -33.858 18.989 -43.353 10.619 -43.353 -3.373 C -43.353 -17.991 -32.966 -27.986 -17.991 -27.986 C -7.01 -27.986 -.914 -22.796 1.748 -18.865 C 4.122 -23.612 9.369 -26.236 16.241 -26.236 L 22.488 -26.236 L 22.488 -9.995 C 19.239 -9.995 17.99 -8.496 17.99 -4.623 " fill="#ef3124"/>
<path transform="matrix(1,0,0,-1,0,149.228)" d="M 96.2 0 L 0 0 L 0 19.99 L 96.2 19.99 Z " fill="#ef3124"/>
<path transform="matrix(1,0,0,-1,34.3571,62.148195)" d="M 0 0 L 13.493 40.104 L 13.992 40.104 L 26.736 0 Z M 31.229 47.507 C 28.486 55.687 25.325 62.148 14.492 62.148 C 3.66 62.148 .295 55.713 -2.592 47.507 L -32.358 -37.105 L -12.618 -37.105 L -5.747 -16.991 L 32.233 -16.991 L 38.604 -37.105 L 59.594 -37.105 Z " fill="#ef3124"/>
</g>
</g>
</g>
</svg>
