<svg xmlns="http://www.w3.org/2000/svg" viewBox="0 0 74.91 98.32"><defs><style>.cls-1{fill:#2ce5a3;}</style></defs><g id="Layer_2" data-name="Layer 2"><g id="Layer_1-2" data-name="Layer 1"><path d="M61.88,93.64a37.39,37.39,0,0,0,.62-56.19l2.81-17.94A16.52,16.52,0,0,0,61.57,6.32c-3.44-4-8-6.32-12.41-6.32H25.75c-4.45,0-9,2.34-12.48,6.32A16.49,16.49,0,0,0,9.52,19.51l2.81,17.94a37.45,37.45,0,0,0,7,60.56,2.65,2.65,0,0,0,1.17.31h34C56.72,98.32,61.88,93.64,61.88,93.64ZM16.39,40.11A2.25,2.25,0,0,0,17.17,38v-.08l-3-19.19a11.93,11.93,0,0,1,2.65-9.44c2.5-3,5.86-4.69,8.9-4.69H49.16c3,0,6.4,1.72,8.89,4.69a11.45,11.45,0,0,1,2.66,9.44L57.74,38v.08a2.43,2.43,0,0,0,.78,2.11,32.8,32.8,0,0,1-4.68,53.52H21.07a32.88,32.88,0,0,1-4.68-53.6Z"/><path d="M22.32,32.93a2.28,2.28,0,0,0,2.34,2h.39a1.08,1.08,0,0,0,.54-.16,32.78,32.78,0,0,1,11.86-2.26,32.07,32.07,0,0,1,11.86,2.26,1.49,1.49,0,0,0,.55.16h.39a2.42,2.42,0,0,0,2.34-2l2.34-15.06a5.62,5.62,0,0,0-1.32-4.68,5.92,5.92,0,0,0-4.45-2.27H25.75a5.8,5.8,0,0,0-4.45,2.27A5.83,5.83,0,0,0,20,17.87Zm2.57-16.7c.39-.47.63-.62.86-.62H49.16c.23,0,.55.15.86.62a1,1,0,0,1,.23.94L48.38,29.42a37.21,37.21,0,0,0-21.85,0l-2-12.25A1.26,1.26,0,0,1,24.89,16.23Z"/><path class="cls-1" d="M15.53,51.58a2.34,2.34,0,0,0,1.4.47,2.36,2.36,0,0,0,1.88-.94,23.08,23.08,0,0,1,14.51-8.9,2.34,2.34,0,1,0-.86-4.6A28.56,28.56,0,0,0,15,48.3,2.45,2.45,0,0,0,15.53,51.58Z"/></g></g></svg>