<svg xmlns="http://www.w3.org/2000/svg" viewBox="0 0 96.67 100.48"><defs><style>.cls-1,.cls-2{fill:none;stroke-linecap:round;stroke-linejoin:round;stroke-width:6.41px;}.cls-1{stroke:#000;}.cls-2{stroke:#2ce5a3;}</style></defs><g id="Layer_2" data-name="Layer 2"><g id="Layer_1-2" data-name="Layer 1"><path class="cls-1" d="M19.91,90.52S72.63,97.28,84,97.28s9.33-14,9.33-14H27.21c0,9.73-13.2,9.47-13.2,0V15.39C14,6,12.77,3.27,8.89,3.27S3.2,6.63,3.2,15.54l10.36,0"/><path class="cls-1" d="M9.15,3.2h70c3.47,0,8.46,2.09,8.46,10.25V82.58"/><line class="cls-2" x1="32.91" y1="51.32" x2="30.03" y2="51.32"/><line class="cls-2" x1="32.91" y1="66.27" x2="30.03" y2="66.27"/><line class="cls-2" x1="30.03" y1="36.04" x2="32.91" y2="36.04"/><line class="cls-2" x1="30.03" y1="20.75" x2="32.91" y2="20.75"/><line class="cls-1" x1="41.35" y1="51.32" x2="68.93" y2="51.32"/><line class="cls-1" x1="41.35" y1="66.27" x2="56.17" y2="66.27"/><line class="cls-1" x1="41.35" y1="36.04" x2="68.93" y2="36.04"/><line class="cls-1" x1="41.35" y1="20.75" x2="68.93" y2="20.75"/></g></g></svg>