<svg xmlns="http://www.w3.org/2000/svg" viewBox="0 0 104.06 107.43"><defs><style>.cls-1,.cls-2{fill:none;stroke-miterlimit:10;stroke-width:5px;}.cls-1{stroke:#000;}.cls-2{stroke:#2ce5a3;stroke-linecap:round;}</style></defs><g id="Layer_2" data-name="Layer 2"><g id="Layer_1-2" data-name="Layer 1"><path class="cls-1" d="M54.41,4,67,29.42a2.63,2.63,0,0,0,2,1.45L97,35a2.65,2.65,0,0,1,1.47,4.53L78.2,59.29a2.66,2.66,0,0,0-.77,2.35l4.8,28a2.65,2.65,0,0,1-3.85,2.8L53.27,79.19a2.71,2.71,0,0,0-2.48,0L25.68,92.4a2.65,2.65,0,0,1-3.85-2.8l4.8-28a2.66,2.66,0,0,0-.77-2.35L5.55,39.48A2.65,2.65,0,0,1,7,35l28.07-4.08a2.63,2.63,0,0,0,2-1.45L49.65,4A2.66,2.66,0,0,1,54.41,4Z"/><line class="cls-2" x1="52.03" y1="87.6" x2="52.03" y2="104.93"/><line class="cls-2" x1="85.81" y1="63" x2="101.56" y2="68.02"/><line class="cls-2" x1="18.52" y1="63.22" x2="2.5" y2="68.51"/><line class="cls-2" x1="73.11" y1="23.72" x2="82.9" y2="10.47"/><line class="cls-2" x1="31.23" y1="23.53" x2="21.47" y2="10.07"/></g></g></svg>