<svg xmlns="http://www.w3.org/2000/svg" viewBox="0 0 96.12 97.02"><defs><style>.cls-1{fill:#fff;stroke:#2ce5a3;stroke-linecap:round;stroke-miterlimit:10;stroke-width:6px;}</style></defs><g id="Layer_2" data-name="Layer 2"><g id="Layer_1-2" data-name="Layer 1"><path d="M9.69,0A2.94,2.94,0,0,0,6.75,2.94v9.4c0,9.88,8.81,9.86,8.81,16.45v6.47a2.94,2.94,0,0,0,5.88,0V28.79c0-9.88-8.81-9.86-8.81-16.45V2.94A2.94,2.94,0,0,0,9.69,0Z"/><path d="M24.38,5.88a2.94,2.94,0,0,0-2.94,2.93v5.88c0,9.88,8.81,9.87,8.81,16.45v4.12a2.94,2.94,0,0,0,5.88,0V31.14c0-9.87-8.81-9.85-8.81-16.45V8.81A2.94,2.94,0,0,0,24.38,5.88Z"/><path d="M51.82,87.06,52,88.68a8.82,8.82,0,0,0,8.74,7.72h19a8.84,8.84,0,0,0,8.75-7.72l7.55-60.45a7.35,7.35,0,0,0-6.43-8.17,8.27,8.27,0,0,0-.86,0h-37a7.34,7.34,0,0,0-7.34,7.36,8.11,8.11,0,0,0,0,.86l1.91,15.28Zm-.06-61.18h37a1.47,1.47,0,0,1,1.47,1.45,1.34,1.34,0,0,1,0,.2l-.74,5.95C75.72,37.89,66.93,28.9,51,32.77l-.66-5.23a1.47,1.47,0,0,1,1.28-1.64Zm.54,17.63-.59-4.8c14.5-4.11,20.54,4.52,37,1L82.71,88a2.94,2.94,0,0,1-2.94,2.57h-19A3,3,0,0,1,57.83,88l-.59-4.62Z"/><path class="cls-1" d="M64.68,46.8H9.58A6.56,6.56,0,0,0,3,53.36a34.42,34.42,0,0,0,17.9,31.32,3.92,3.92,0,0,1,1.95,2.51l.72,2.86a5.23,5.23,0,0,0,5.09,4H45.57a5.25,5.25,0,0,0,5.1-4l.71-2.86a4,4,0,0,1,1.95-2.51,34.42,34.42,0,0,0,17.9-31.32A6.56,6.56,0,0,0,64.68,46.8Z"/></g></g></svg>