
<svg width="526px" height="97px" viewBox="0 0 526 97" version="1.1" xmlns="http://www.w3.org/2000/svg" xmlns:xlink="http://www.w3.org/1999/xlink">
    <g id="Page-1" stroke="none" stroke-width="1" fill="none" fill-rule="evenodd">
        <g id="logo" transform="translate(-1.000000, 0.000000)" fill-rule="nonzero">
            <path d="M51.84,0 C53.84,0 56,0.1 58.37,0.28 C60.74,0.46 63.12,0.73 65.54,1.06 C67.8956375,1.38545652 70.2322777,1.83609426 72.54,2.41 C74.5728542,2.91063203 76.5471408,3.62459304 78.43,4.54 C79.5523846,5.06416409 80.5355805,5.84523958 81.3,6.82 C81.92,7.66666667 81.8033333,9.03666667 80.95,10.93 L77.54,19.31 C77.2731635,20.3493187 76.641366,21.2579713 75.76,21.87 C74.602328,22.2957655 73.3493749,22.392679 72.14,22.15 L61.07,21.09 C57.6566667,20.7633333 54.4366667,20.5966667 51.41,20.59 C47.9815469,20.4942578 44.5780283,21.1996148 41.47,22.65 C38.7374502,24.0212616 36.3458455,25.9857941 34.47,28.4 C32.4381575,31.0328924 30.853636,33.9823323 29.78,37.13 C28.538671,40.7194638 27.5659889,44.396269 26.87,48.13 C26.4,50.59 26.04,52.91 25.81,55.13 C25.5780215,57.0607648 25.5077772,59.0075372 25.6,60.95 C25.5740264,63.166671 25.7886152,65.3796183 26.24,67.55 C26.5846286,69.3172307 27.3078694,70.9888722 28.36,72.45 C29.4681966,73.8322335 30.9451843,74.8723656 32.62,75.45 C34.8700782,76.2244076 37.2413266,76.5868698 39.62,76.52 C41.3538048,76.5116173 43.0860542,76.4148249 44.81,76.23 C46.65,76.05 48.33,75.81 49.81,75.52 L53,59.21 L43.46,59.21 C42.13,59.21 41.33,58.95 41.04,58.43 C40.7425328,57.7343946 40.6931068,56.9577011 40.9,56.23 L43.32,44 C43.4509305,43.1694437 43.7955344,42.3871928 44.32,41.73 C45.0515615,41.079306 46.0287244,40.7766772 47,40.9 L75.4,40.9 C77.48,40.9 78.38,41.94 78.1,44.02 L70.1,84.35 C69.7430115,85.9014966 69.1955233,87.4028908 68.47,88.82 C67.5349258,90.3592578 66.0583219,91.4934609 64.33,92 C59.212517,93.852105 53.9021771,95.1201457 48.5,95.78 C43.4369429,96.4500106 38.3370704,96.8040292 33.23,96.84 C26.4233333,96.84 20.91,95.9166667 16.69,94.07 C12.8246251,92.4923829 9.44411048,89.9225018 6.89,86.62 C4.52887687,83.4004558 2.92873778,79.6873125 2.21,75.76 C1.38201537,71.4295307 0.976777905,67.0288528 1,62.62 C1,60.45 1.12,58.17 1.35,55.81 C1.58,53.45 2,51 2.42,48.56 C3.38491099,42.48961 4.91832303,36.5233649 7,30.74 C8.99386143,25.0764023 11.9767546,19.8114773 15.81,15.19 C19.7754674,10.5099133 24.7179622,6.75525569 30.29,4.19 C36.13,1.39666667 43.3133333,0 51.84,0 Z" id="Path" fill="#000000"></path>
            <path d="M103.52,4.26 C103.671605,3.38806246 104.066828,2.57681556 104.66,1.92 C105.387521,1.24135143 106.36887,0.903331326 107.36,0.99 L163.36,0.99 C165.36,0.99 166.116667,2.02666667 165.63,4.1 L163,17.35 C162.840811,18.1233874 162.497819,18.8471005 162,19.46 C161.310781,20.1019668 160.376318,20.4122375 159.44,20.31 L123.26,20.31 L120.14,36.92 L151.66,36.92 C153.74,36.92 154.546667,37.96 154.08,40.04 L151.52,53.39 C151.371628,54.1519943 151.026934,54.8620651 150.52,55.45 C149.809747,56.0500775 148.884193,56.3320823 147.96,56.23 L116.45,56.23 L112.61,76.11 L149.82,76.11 C151.713333,76.11 152.516667,77.1533333 152.23,79.24 L149.67,92.58 C149.523415,93.3425893 149.178506,94.0531007 148.67,94.64 C147.959747,95.2400775 147.034193,95.5220823 146.11,95.42 L89,95.42 C87.77,95.42 87,95.14 86.59,94.57 C86.1896192,93.8839283 86.0849593,93.0646938 86.3,92.3 L103.52,4.26 Z" id="Path" fill="#000000"></path>
            <path d="M241.41,19.46 C240.656645,20.0870903 239.686724,20.3924357 238.71,20.31 L218.12,20.31 L204.06,92.31 C203.936181,93.0439139 203.671297,93.7468748 203.28,94.38 C202.656344,95.1787234 201.65322,95.5830244 200.65,95.44 L183.9,95.44 C182.66,95.44 181.9,95.16 181.48,94.59 C181.08787,93.8972477 180.987144,93.0770489 181.2,92.31 L195.11,20.31 L174.67,20.31 C173.34,20.31 172.54,20.02 172.25,19.46 C171.959965,18.794206 171.910472,18.0482769 172.11,17.35 L174.67,4.1 C174.801015,3.26112834 175.168754,2.47708165 175.73,1.84 C176.499827,1.19337848 177.500688,0.88986809 178.5,1 L242.68,1 C244.76,1 245.566667,2.03666667 245.1,4.11 L242.54,17.36 C242.371466,18.1534967 241.979361,18.8821863 241.41,19.46 L241.41,19.46 Z" id="Path" fill="#000000"></path>
            <path d="M289.24,0.71 C290.64,0.71 292.06,0.77 293.52,0.88 C294.98,0.99 296.43,1.16 297.88,1.36 C299.26564,1.55261689 300.638202,1.82980102 301.99,2.19 C303.192274,2.51491101 304.36088,2.95355703 305.48,3.5 C306.177741,3.82058953 306.790758,4.30004416 307.27,4.9 C307.64,5.42 307.6,6.27 307.14,7.43 L305,12.58 C304.842841,13.2199035 304.454614,13.7790938 303.91,14.15 C303.201966,14.4189688 302.432117,14.481389 301.69,14.33 L294.92,13.67 C292.846667,13.47 290.883333,13.37 289.03,13.37 C286.917116,13.3033975 284.819864,13.7530539 282.92,14.68 C281.242383,15.536465 279.779447,16.7601363 278.64,18.26 C277.411456,19.8861002 276.452536,21.6992696 275.8,23.63 C275.045684,25.8012441 274.476977,28.0325826 274.1,30.3 C273.499496,32.8750826 273.233968,35.5169195 273.31,38.16 C273.43,41.3 274.21,43.66 275.67,45.23 C277.13,46.8 279.54,47.59 282.92,47.59 C284.08,47.59 285.17,47.59 286.19,47.59 C287.21,47.59 288.19,47.5 289.19,47.41 L292.38,47.15 C293.51,47.06 294.78,46.93 296.18,46.76 C296.935383,46.6092014 297.716772,46.6539505 298.45,46.89 C298.85,47.09 299.11,47.63 299.23,48.5 L299.41,53.3 C299.578325,54.2026748 299.33647,55.133453 298.75,55.84 C298.091607,56.4889904 297.304764,56.9931148 296.44,57.32 C293.752053,58.3726098 290.954588,59.1206129 288.1,59.55 C285.170383,60.0265277 282.208076,60.2739439 279.24,60.29 C275.732292,60.3974889 272.236332,59.8340622 268.94,58.63 C266.434866,57.692085 264.21112,56.1292666 262.48,54.09 C260.887152,52.1249036 259.75292,49.8291082 259.16,47.37 C258.506665,44.684117 258.214091,41.9231599 258.29,39.16 C258.289003,37.747115 258.362438,36.3351585 258.51,34.93 C258.65,33.5 258.84,32.06 259.07,30.61 C259.650266,26.8712086 260.557068,23.1904617 261.78,19.61 C262.95048,16.1233505 264.753978,12.8824775 267.1,10.05 C269.533628,7.17984451 272.559544,4.87032377 275.97,3.28 C280.148077,1.45005696 284.68083,0.572198886 289.24,0.71 Z" id="Path" fill="#000000"></path>
            <path d="M340.14,0.62 C343.7702,0.502523396 347.388275,1.09704263 350.79,2.37 C353.354956,3.36856501 355.632739,4.98671857 357.42,7.08 C359.065335,9.08721155 360.203996,11.4605662 360.74,14 C361.328494,16.7394342 361.590319,19.5389502 361.52,22.34 C361.519553,23.566323 361.44944,24.7916303 361.31,26.01 C361.16,27.23 361,28.42 360.83,29.59 C360.292375,33.3167774 359.45976,36.9949968 358.34,40.59 C357.246429,44.1383842 355.529622,47.4636399 353.27,50.41 C350.903704,53.4231966 347.870947,55.8466639 344.41,57.49 C340.75,59.29 336.123333,60.19 330.53,60.19 C327.085497,60.2935557 323.652311,59.7473669 320.41,58.58 C317.947846,57.6554025 315.747824,56.1452471 314,54.18 C312.418651,52.3280295 311.298107,50.1280611 310.73,47.76 C310.103137,45.1908614 309.794157,42.5544621 309.81,39.91 C309.81,38.16 309.9,36.43 310.07,34.71 C310.24,32.99 310.48,31.29 310.77,29.61 C311.307929,26.4095941 312.097034,23.2565155 313.13,20.18 C314.249188,16.7755879 315.94003,13.586659 318.13,10.75 C320.455707,7.7406896 323.402596,5.26789542 326.77,3.5 C330.33,1.58 334.786667,0.62 340.14,0.62 Z M338.74,12.84 C336.957966,12.791849 335.194935,13.2162186 333.63,14.07 C332.154771,14.9389915 330.909852,16.1496154 330,17.6 C328.889585,19.3372222 328.021568,21.2179253 327.42,23.19 C326.659999,25.6103589 326.048857,28.0749671 325.59,30.57 C325.29,31.96 325.08,33.3 324.93,34.57 C324.78,35.84 324.68,37.08 324.63,38.24 C324.51,41.5 325.06,43.93 326.28,45.53 C327.51,47.13 329.54,47.93 332.4,47.93 C334.286075,47.9909761 336.15806,47.5856655 337.85,46.75 C339.381113,45.9300036 340.686329,44.7450047 341.65,43.3 C342.782564,41.6140076 343.677633,39.7801255 344.31,37.85 C345.107362,35.4672466 345.735589,33.0311964 346.19,30.56 C346.48,28.98 346.71,27.56 346.89,26.15 C347.056296,24.8598861 347.143126,23.5607694 347.15,22.26 C347.27,18.94 346.65,16.54 345.32,15.06 C343.99,13.58 341.76,12.84 338.74,12.84 Z" id="Shape" fill="#000000"></path>
            <path d="M375.84,56.93 C375.516391,57.6845187 375.007284,58.3449808 374.36,58.85 C373.760028,59.2196624 373.0643,59.4040304 372.36,59.38 L362.36,59.38 C361.72,59.38 361.31,59.25 361.14,58.98 C360.97,58.71 361.14,58.1 361.57,57.11 L388.59,3.85 C388.953536,3.15901293 389.430114,2.53371514 390,2 C390.724531,1.48966334 391.607812,1.25554082 392.49,1.34 L403.49,1.34 C404.71,1.34 405.49,1.57 405.76,2.04 C406.091495,2.63198395 406.299041,3.28524157 406.37,3.96 L413.53,57.3 C413.607562,57.8300816 413.545519,58.371227 413.35,58.87 C413.18,59.22 412.77,59.4 412.13,59.4 L401.77,59.4 C400.77,59.4 400.16,59.18 399.89,58.74 C399.574962,58.1161273 399.384738,57.4367565 399.33,56.74 L398.45,46.35 L381.08,46.35 L375.84,56.93 Z M396.71,26 L396,15.38 L395.56,15.38 L390.56,25.94 L386.1,35.63 L397.45,35.63 L396.71,26 Z" id="Shape" fill="#000000"></path>
            <path d="M453.89,0.71 C455.29,0.71 456.71,0.77 458.17,0.88 C459.63,0.99 461.08,1.16 462.53,1.36 C463.912519,1.55159745 465.281816,1.82879674 466.63,2.19 C467.836029,2.51325381 469.00811,2.95194702 470.13,3.5 C470.827741,3.82058953 471.440758,4.30004416 471.92,4.9 C472.29,5.42 472.25,6.27 471.79,7.43 L469.6,12.58 C469.442841,13.2199035 469.054614,13.7790938 468.51,14.15 C467.801966,14.4189688 467.032117,14.481389 466.29,14.33 L459.52,13.67 C457.446667,13.47 455.483333,13.37 453.63,13.37 C451.517116,13.3033975 449.419864,13.7530539 447.52,14.68 C445.842383,15.536465 444.379447,16.7601363 443.24,18.26 C442.011456,19.8861002 441.052536,21.6992696 440.4,23.63 C439.641055,25.7998501 439.072245,28.0315907 438.7,30.3 C438.099496,32.8750826 437.833968,35.5169195 437.91,38.16 C438.03,41.3 438.81,43.66 440.27,45.23 C441.73,46.8 444.14,47.59 447.52,47.59 C448.68,47.59 449.77,47.59 450.79,47.59 C451.81,47.59 452.79,47.5 453.79,47.41 L456.98,47.15 C458.11,47.06 459.38,46.93 460.78,46.76 C461.535383,46.6092014 462.316772,46.6539505 463.05,46.89 C463.45,47.09 463.71,47.63 463.83,48.5 L464.01,53.3 C464.178325,54.2026748 463.93647,55.133453 463.35,55.84 C462.691607,56.4889904 461.904764,56.9931148 461.04,57.32 C458.352053,58.3726098 455.554588,59.1206129 452.7,59.55 C449.770383,60.0265277 446.808076,60.2739439 443.84,60.29 C440.332292,60.3974889 436.836332,59.8340622 433.54,58.63 C431.034866,57.692085 428.81112,56.1292666 427.08,54.09 C425.487152,52.1249036 424.35292,49.8291082 423.76,47.37 C423.106665,44.684117 422.814091,41.9231599 422.89,39.16 C422.889003,37.747115 422.962438,36.3351585 423.11,34.93 C423.25,33.5 423.44,32.06 423.67,30.61 C424.250266,26.8712086 425.157068,23.1904617 426.38,19.61 C427.55048,16.1233505 429.353978,12.8824775 431.7,10.05 C434.133628,7.17984451 437.159544,4.87032377 440.57,3.28 C444.763418,1.44275172 449.31407,0.564735546 453.89,0.71 L453.89,0.71 Z" id="Path" fill="#000000"></path>
            <path d="M512.12,3 C512.327986,1.89824401 513.371807,1.15960755 514.48,1.33 L524.69,1.33 C525.496667,1.33 525.976667,1.49 526.13,1.81 C526.268288,2.19117855 526.268288,2.60882145 526.13,2.99 L515.61,57.8 C515.553529,58.2036414 515.387516,58.5840872 515.13,58.9 C514.689811,59.2885749 514.101107,59.4640889 513.52,59.38 L503.21,59.38 C502.690746,59.4429812 502.16604,59.3188953 501.73,59.03 C501.47533,58.6725772 501.411825,58.2131005 501.56,57.8 L505.83,35.28 L489.33,35.28 L485.06,57.8 C484.945441,58.2010827 484.751621,58.5751223 484.49,58.9 C484.075111,59.2767023 483.515721,59.4521972 482.96,59.38 L472.57,59.38 C472.050696,59.4438739 471.525684,59.3197156 471.09,59.03 C470.83195,58.6743159 470.76469,58.2147124 470.91,57.8 L481.48,3 C481.687906,1.90373623 482.727295,1.16952952 483.83,1.34 L494.22,1.34 C494.98,1.34 495.41,1.5 495.53,1.82 C495.650742,2.20747848 495.650742,2.62252152 495.53,3.01 L491.69,23.43 L508.28,23.43 L512.12,3 Z" id="Path" fill="#000000"></path>
            <path d="M249.51,95.42 C248.18,95.42 247.38,95.14 247.09,94.58 C246.800049,93.910672 246.750585,93.1616446 246.95,92.46 L249.51,79.21 C249.650004,78.3887949 250.017205,77.6232147 250.57,77 C251.335921,76.3455485 252.338824,76.0377983 253.34,76.15 L509.52,76.15 C511.6,76.15 512.41,77.15 511.94,79.25 L509.38,92.5 C509.21345,93.300054 508.821335,94.0357036 508.25,94.62 C507.495125,95.2435067 506.525364,95.5452102 505.55,95.46 L249.51,95.42 Z" id="Path" fill="#2CE5A3"></path>
        </g>
    </g>
</svg>
