<svg xmlns="http://www.w3.org/2000/svg" viewBox="0 0 525.25 96.84"><defs><style>.cls-1{fill:#fff;}.cls-2{fill:#2ce5a3;}</style></defs><g id="Layer_2" data-name="Layer 2"><g id="logo_hor"><path class="cls-1" d="M50.84,0c2,0,4.16.1,6.53.28s4.75.45,7.17.78a67,67,0,0,1,7,1.35,29.73,29.73,0,0,1,5.89,2.13A7.89,7.89,0,0,1,80.3,6.82q.93,1.27-.35,4.11l-3.41,8.38a4.47,4.47,0,0,1-1.78,2.56,6.68,6.68,0,0,1-3.62.28L60.07,21.09q-5.12-.49-9.66-.5a22.05,22.05,0,0,0-9.94,2.06,20.52,20.52,0,0,0-7,5.75,30.3,30.3,0,0,0-4.69,8.73,76.61,76.61,0,0,0-2.91,11c-.47,2.46-.83,4.78-1.06,7a34.91,34.91,0,0,0-.21,5.82,30.65,30.65,0,0,0,.64,6.6,12.47,12.47,0,0,0,2.12,4.9,9.38,9.38,0,0,0,4.26,3,19.8,19.8,0,0,0,7,1.07,51,51,0,0,0,5.19-.29c1.84-.18,3.52-.42,5-.71L52,59.21H42.46c-1.33,0-2.13-.26-2.42-.78a3.3,3.3,0,0,1-.14-2.2L42.32,44a4.85,4.85,0,0,1,1-2.27A3.39,3.39,0,0,1,46,40.9h28.4q3.12,0,2.7,3.12l-8,40.33a19.31,19.31,0,0,1-1.63,4.47A7.22,7.22,0,0,1,63.33,92,72.26,72.26,0,0,1,47.5,95.78a123,123,0,0,1-15.27,1.06q-10.21,0-16.54-2.77a23.72,23.72,0,0,1-9.8-7.45A26.4,26.4,0,0,1,1.21,75.76,68.06,68.06,0,0,1,0,62.62c0-2.17.12-4.45.35-6.81S1,51,1.42,48.56A98.08,98.08,0,0,1,6,30.74a50.76,50.76,0,0,1,8.81-15.55,42,42,0,0,1,14.48-11Q38.05,0,50.84,0Z"/><path class="cls-1" d="M102.52,4.26a4.69,4.69,0,0,1,1.14-2.34,3.51,3.51,0,0,1,2.7-.93h56q3,0,2.27,3.11L162,17.35a4.92,4.92,0,0,1-1,2.11,3.24,3.24,0,0,1-2.56.85H122.26l-3.12,16.61h31.52q3.12,0,2.42,3.12l-2.56,13.35a4.46,4.46,0,0,1-1,2.06,3.39,3.39,0,0,1-2.56.78H115.45l-3.84,19.88h37.21q2.84,0,2.41,3.13l-2.56,13.34a4.42,4.42,0,0,1-1,2.06,3.39,3.39,0,0,1-2.56.78H88c-1.23,0-2-.28-2.41-.85a2.93,2.93,0,0,1-.29-2.27Z"/><path class="cls-1" d="M240.41,19.46a3.73,3.73,0,0,1-2.7.85H217.12l-14.06,72a5.76,5.76,0,0,1-.78,2.07,2.83,2.83,0,0,1-2.63,1.06H182.9c-1.24,0-2-.28-2.42-.85a3,3,0,0,1-.28-2.28l13.91-72H173.67c-1.33,0-2.13-.29-2.42-.85a3.13,3.13,0,0,1-.14-2.11L173.67,4.1a4.46,4.46,0,0,1,1.06-2.26A3.68,3.68,0,0,1,177.5,1h64.18q3.12,0,2.42,3.11l-2.56,13.25A4.25,4.25,0,0,1,240.41,19.46Z"/><path class="cls-1" d="M288.24.71c1.4,0,2.82.06,4.28.17s2.91.28,4.36.48a34.31,34.31,0,0,1,4.11.83,19.62,19.62,0,0,1,3.49,1.31,4.92,4.92,0,0,1,1.79,1.4c.37.52.33,1.37-.13,2.53L304,12.58a2.67,2.67,0,0,1-1.09,1.57,4,4,0,0,1-2.22.18l-6.77-.66q-3.11-.3-5.89-.3a13,13,0,0,0-6.11,1.31,12.53,12.53,0,0,0-4.28,3.58,19,19,0,0,0-2.84,5.37,40.63,40.63,0,0,0-1.7,6.67,30.72,30.72,0,0,0-.79,7.86c.12,3.14.9,5.5,2.36,7.07s3.87,2.36,7.25,2.36c1.16,0,2.25,0,3.27,0s2-.09,3-.18l3.19-.26c1.13-.09,2.4-.22,3.8-.39a4.52,4.52,0,0,1,2.27.13c.4.2.66.74.78,1.61l.18,4.8a3.09,3.09,0,0,1-.66,2.54,6.63,6.63,0,0,1-2.31,1.48,38.63,38.63,0,0,1-8.34,2.23,57.11,57.11,0,0,1-8.86.74,27.56,27.56,0,0,1-10.3-1.66,15.69,15.69,0,0,1-6.46-4.54,17,17,0,0,1-3.32-6.72,31.12,31.12,0,0,1-.87-8.21,40.23,40.23,0,0,1,.22-4.23c.14-1.43.33-2.87.56-4.32a64.76,64.76,0,0,1,2.71-11,29.91,29.91,0,0,1,5.32-9.56,26.08,26.08,0,0,1,8.87-6.77A30.76,30.76,0,0,1,288.24.71Z"/><path class="cls-1" d="M339.14.62a27.82,27.82,0,0,1,10.65,1.75,16.67,16.67,0,0,1,6.63,4.71A16.19,16.19,0,0,1,359.74,14a35.47,35.47,0,0,1,.78,8.34,32.38,32.38,0,0,1-.21,3.67c-.15,1.22-.31,2.41-.48,3.58a71.15,71.15,0,0,1-2.49,11,31.27,31.27,0,0,1-5.07,9.82,24.78,24.78,0,0,1-8.86,7.08q-5.49,2.7-13.88,2.7a27.44,27.44,0,0,1-10.12-1.61A16.2,16.2,0,0,1,313,54.18a15.43,15.43,0,0,1-3.27-6.42,32.3,32.3,0,0,1-.92-7.85c0-1.75.09-3.48.26-5.2s.41-3.42.7-5.1a61.82,61.82,0,0,1,2.36-9.43,31.56,31.56,0,0,1,5-9.43,26.47,26.47,0,0,1,8.64-7.25Q331.11.62,339.14.62Zm-1.4,12.22a10.1,10.1,0,0,0-5.11,1.23A10.69,10.69,0,0,0,329,17.6a22.65,22.65,0,0,0-2.58,5.59,62.17,62.17,0,0,0-1.83,7.38c-.3,1.39-.51,2.73-.66,4s-.25,2.51-.3,3.67q-.18,4.89,1.65,7.29c1.23,1.6,3.26,2.4,6.12,2.4a11.47,11.47,0,0,0,5.45-1.18,10.56,10.56,0,0,0,3.8-3.45,22.13,22.13,0,0,0,2.66-5.45,53.41,53.41,0,0,0,1.88-7.29c.29-1.58.52-3,.7-4.41a31.74,31.74,0,0,0,.26-3.89c.12-3.32-.5-5.72-1.83-7.2S340.76,12.84,337.74,12.84Z"/><path class="cls-1" d="M374.84,56.93a4.87,4.87,0,0,1-1.48,1.92,3.58,3.58,0,0,1-2,.53h-10c-.64,0-1.05-.13-1.22-.4s0-.88.43-1.87L387.59,3.85A7,7,0,0,1,389,2a3.71,3.71,0,0,1,2.49-.66h11c1.22,0,2,.23,2.27.7a5,5,0,0,1,.61,1.92l7.16,53.34a3.08,3.08,0,0,1-.18,1.57c-.17.35-.58.53-1.22.53H400.77c-1,0-1.61-.22-1.88-.66a5.37,5.37,0,0,1-.56-2l-.88-10.39H380.08ZM395.71,26,395,15.38h-.44l-5,10.56-4.46,9.69h11.35Z"/><path class="cls-1" d="M452.89.71c1.4,0,2.82.06,4.28.17s2.91.28,4.36.48a33.74,33.74,0,0,1,4.1.83,19.44,19.44,0,0,1,3.5,1.31,4.92,4.92,0,0,1,1.79,1.4c.37.52.33,1.37-.13,2.53l-2.19,5.15a2.67,2.67,0,0,1-1.09,1.57,4,4,0,0,1-2.22.18l-6.77-.66q-3.11-.3-5.89-.3a13,13,0,0,0-6.11,1.31,12.53,12.53,0,0,0-4.28,3.58,19,19,0,0,0-2.84,5.37,39.65,39.65,0,0,0-1.7,6.67,30.72,30.72,0,0,0-.79,7.86c.12,3.14.9,5.5,2.36,7.07s3.87,2.36,7.25,2.36c1.16,0,2.25,0,3.27,0s2-.09,3-.18l3.19-.26c1.13-.09,2.4-.22,3.8-.39a4.52,4.52,0,0,1,2.27.13c.4.2.66.74.78,1.61l.18,4.8a3.09,3.09,0,0,1-.66,2.54,6.63,6.63,0,0,1-2.31,1.48,38.63,38.63,0,0,1-8.34,2.23,57.11,57.11,0,0,1-8.86.74,27.56,27.56,0,0,1-10.3-1.66,15.69,15.69,0,0,1-6.46-4.54,17,17,0,0,1-3.32-6.72,31.12,31.12,0,0,1-.87-8.21,40.23,40.23,0,0,1,.22-4.23c.14-1.43.33-2.87.56-4.32a64.76,64.76,0,0,1,2.71-11,29.91,29.91,0,0,1,5.32-9.56,26.08,26.08,0,0,1,8.87-6.77A30.76,30.76,0,0,1,452.89.71Z"/><path class="cls-1" d="M511.12,3a2.08,2.08,0,0,1,2.36-1.67h10.21q1.21,0,1.44.48a1.73,1.73,0,0,1,0,1.18L514.61,57.8a2.23,2.23,0,0,1-.48,1.1,2,2,0,0,1-1.61.48H502.21a2.2,2.2,0,0,1-1.48-.35,1.34,1.34,0,0,1-.17-1.23l4.27-22.52h-16.5L484.06,57.8a3.12,3.12,0,0,1-.57,1.1,1.91,1.91,0,0,1-1.53.48H471.57a2.19,2.19,0,0,1-1.48-.35,1.34,1.34,0,0,1-.18-1.23L480.48,3a2.07,2.07,0,0,1,2.35-1.66h10.39c.76,0,1.19.16,1.31.48a2,2,0,0,1,0,1.19l-3.84,20.42h16.59Z"/><path class="cls-2" d="M248.51,95.42c-1.33,0-2.13-.28-2.42-.84a3.16,3.16,0,0,1-.14-2.12l2.56-13.25A4.46,4.46,0,0,1,249.57,77a3.64,3.64,0,0,1,2.77-.85H508.52c2.08,0,2.89,1,2.42,3.1l-2.56,13.25a4.28,4.28,0,0,1-1.13,2.12,3.73,3.73,0,0,1-2.7.84Z"/></g></g></svg>