<svg viewBox="0 0 229.06000000000003 62.31" xmlns="http://www.w3.org/2000/svg" width="2500" height="680"><path d="M57.13 0H0v57.09z" fill="#9fcfac"/><path d="M5.1 62.31h57.11V5.23z" fill="#005e68"/><g fill="#1d1d1b"><path d="M95.4.08H75.19V62.3h12.48V39.06h8c14.58 0 22.94-7 22.94-19.19v-.34C118.6 7.17 110.14.08 95.4.08zm11 19.79c0 6.46-3.8 9.87-11 9.87h-7.73V10h7.73c7.49 0 11 3 11 9.52zM149 24.52h-10.18V10.18h27.09V.08h-39.48V62.3h22.34c14.26 0 22.44-6.9 22.44-18.93V43c0-11.9-7.88-18.48-22.21-18.48zm-10.21 9.33H148c7.51 0 11.15 3 11.15 9.09v.34c0 6.1-3.6 9.19-10.72 9.19h-9.61zM202.03 29.79L227.81 0h-13.7l-22.6 26.8V.08h-12.48V62.3h12.48V34.76l22.68 27.54h14.87z"/></g></svg>